<?xml version="1.0" encoding="utf-8"?>
<!-- Generator: Adobe Illustrator 27.5.0, SVG Export Plug-In . SVG Version: 6.00 Build 0)  -->
<svg version="1.1" id="Layer_1" xmlns="http://www.w3.org/2000/svg" xmlns:xlink="http://www.w3.org/1999/xlink" x="0px" y="0px"
	 viewBox="0 0 3000 2000" style="enable-background:new 0 0 3000 2000;" xml:space="preserve">
<g>
	<rect style="fill:transparent;" width="3000" height="2000"/>
	<path style="fill:#EBF3FA;" d="M2511.455,1738.467c0,0,463.812-651.127-28.603-829.211
		c-124.034-44.857-167.301-672.861-718.242-358.859c-219.101,124.873-534.587-26.24-836.711,56.355
		c-277.465,75.853-283.844,294.661-248.762,373.432c38.333,86.071-114.531,188.977-271.086,259.653
		c-245.572,110.862-64.992,500.478,167.003,502.34C807.048,1744.04,2511.455,1738.467,2511.455,1738.467z"/>
	<path style="fill:#A8D29F;" d="M363,1738.65c0,0-124-208.453,0-242.226s256,198.428,280,74.327s84.854-424.31,204.427-298.206
		s146.545-91.845,323.059,71.13s30.34,394.975,30.34,394.975H363z"/>
	<path style="fill:#A8D29F;" d="M2437,1738.65c0,0,146-124,46-194s-324.258,142.566-304-20.845
		c20.258-163.412,107.366-385.155-40.316-337.155C1991,1234.65,1937,944.661,1801,1082.655s-210,654.062-210,654.062L2437,1738.65z"
		/>
	<g>
		<g>
			<path style="fill:#CA5F00;" d="M1739.475,247.803h-704.698c-22.094,0-40.171,18.077-40.171,40.171V1697.21
				c0,22.094,18.077,40.171,40.171,40.171h704.698c22.094,0,40.171-18.077,40.171-40.171V287.974
				C1779.646,265.88,1761.569,247.803,1739.475,247.803z"/>
			<path style="fill:#E69D43;" d="M1815.573,247.803h-704.698c-22.094,0-40.171,18.077-40.171,40.171V1697.21
				c0,22.094,18.077,40.171,40.171,40.171h704.698c22.094,0,40.171-18.077,40.171-40.171V287.974
				C1855.744,265.88,1837.667,247.803,1815.573,247.803z"/>
			<g>
				<path style="opacity:0.4;fill:#CA5F00;" d="M1578.273,304.187h-204.072c-4.367,0-7.94,3.573-7.94,7.94l0,0
					c0,4.367,3.573,7.94,7.94,7.94h204.072c4.367,0,7.94-3.573,7.94-7.94l0,0C1586.212,307.759,1582.639,304.187,1578.273,304.187z"
					/>
				<path style="opacity:0.4;fill:#CA5F00;" d="M1337.957,304.187c-4.367,0-7.94,3.573-7.94,7.94l0,0c0,4.367,3.573,7.94,7.94,7.94
					c4.367,0,7.94-3.573,7.94-7.94l0,0C1345.897,307.759,1342.324,304.187,1337.957,304.187z"/>
			</g>
			<path style="opacity:0.4;fill:#CA5F00;" d="M1472.945,1603.869c-28.282,0-51.209,22.927-51.209,51.208
				c0,28.283,22.927,51.209,51.209,51.209c28.282,0,51.209-22.927,51.209-51.209
				C1524.154,1626.795,1501.227,1603.869,1472.945,1603.869z"/>
		</g>
		<rect x="1136.049" y="365.92" style="fill:#D5E7F7;" width="652.693" height="1204.831"/>
		<g id="man_8_">
			<path style="fill:#233862;" d="M723.131,1688.604c0,0-5.623,45.729,3.344,47.828c3.475,0.815,106.834-0.219,106.834-0.219
				s0-12.357-16.932-15.102c-16.932-2.745-46.678-12.813-51.711-35.237C759.632,1663.45,723.131,1688.604,723.131,1688.604z"/>
			<path style="fill:#2B478B;" d="M825.432,1452.048c0,39.002-45.056,244.901-45.056,244.901s-45.449,8.162-65.087-11.356
				c0,0,4.269-190.992,11.099-231.616c1.383-8.223-0.811-20.363-5.08-35.118c-16.829-58.128-65.813-156.744-54.576-215.205
				c14.088-73.284,113.643,5.66,113.643,5.66s4.354,19.672,10.348,47.968C804.026,1320.03,825.432,1425.17,825.432,1452.048z"/>
			<path style="fill:#233862;" d="M790.724,1257.283l-69.416,161.577c-16.829-58.128-65.813-156.744-54.576-215.205
				c14.088-73.284,113.643,5.66,113.643,5.66S784.73,1228.987,790.724,1257.283z"/>
			<path style="fill:#E49963;" d="M946.235,1133.724c0,0,22.415-35.345,31.556-35.753c9.141-0.408,31.902-8.995,34.828-4.361
				c2.926,4.633-14.023,15.832-21.352,21.589c-7.329,5.757-12.098,20.684-24.47,21.22
				C954.425,1136.955,946.235,1133.724,946.235,1133.724z"/>
			<path style="fill:#5F9AA8;" d="M789.175,879.099c0,0,47.814,139.778,69.782,166.304c21.968,26.527,99.047,65.72,99.719,69.222
				c1.596,8.323-4.775,21.32-11.993,21.358c-25.624,0.139-77.559-19.334-101.614-42.387
				c-25.455-24.396-65.744-163.791-65.744-163.791L789.175,879.099z"/>
			<path style="fill:#E49963;" d="M1011.176,1045.066c0,0,27.338-0.427,42.237-9.759c14.9-9.333,45.042-8.942,51.162-4.252
				c6.12,4.689,5.111,7.494-2.361,11.734c-7.472,4.24-32.604,24.157-53.224,22.248c-20.62-1.909-45.079,4.505-45.079,4.505
				L1011.176,1045.066z"/>
			<path style="fill:#233862;" d="M470.514,1647.653c0,0-18.763,17.389-15.102,29.746c3.661,12.355,20.593,20.593,22.881,35.695
				c2.288,15.101,11.441,23.338,19.678,23.338c8.237,0,39.271,0,39.271,0s6.064-10.626-8.581-13.83
				c-14.644-3.202-20.165-20.948-19.25-37.423c0.915-16.475-1.373-38.44-1.373-38.44l-31.118-7.322L470.514,1647.653z"/>
			<path style="fill:#2B478B;" d="M782.171,1165.459c0,0-118.083,227.715-183.981,345.782
				c-65.898,118.067-86.491,151.016-86.491,151.016s-37.754-15.102-41.186-25.398c0,0,33.881-195.33,88.64-264.318
				c24.927-31.404,23.793-119.992,31.193-169.514c4.874-32.616,27.064-90.221,27.064-90.221L782.171,1165.459z"/>
			<path style="fill:#E49963;" d="M828.856,828.963c12.269,14.737,16.735,29.738,16.735,29.738
				c-40.975-2.826-91.846-58.64-91.846-58.64s29.722-8.213,50.674-41.06c1.059-1.657,2.092-3.372,3.091-5.148
				c3.193-5.644,6.104-11.937,8.589-18.946l12.15,21.303l20.202,35.425c0,0-4.227,10.494-13.977,27.715
				C832.775,822.355,830.905,825.565,828.856,828.963z"/>
			<path style="fill:#80BDCC;" d="M858.082,917.744c-1.263,19.911-7.266,50.076-15.42,83.537
				c-3.168,12.962-6.651,26.417-10.306,39.968c-5.934,21.986-12.116,44.1-18.494,64.916l-0.239,0.743
				c-0.461,2.117-1.178,4.363-1.827,6.421c-5.533,18.384-10.835,35.4-15.454,49.847c-8.846,27.63-8.905,43.02-15.966,46.14
				c-14.187,6.27-70.044-0.461-103.514-14.967c-28.279-12.04-71.368-48.348-71.147-66.624
				c0.255-21.184,28.684-84.964,47.527-159.434c23.25-90.966,74.82-163.609,117.828-178.585c3.21-1.042,6.643,5.703,19.108,17.674
				c11.518,11.049,26.025,17.947,39.754,19.416l8.188,13.661C849.211,860.008,860.14,885.273,858.082,917.744z"/>
			<path style="fill:#5F9AA8;" d="M842.662,1001.281c-3.168,12.962-6.651,26.417-10.306,39.968
				c-5.934,21.986-12.116,44.1-18.494,64.916l-0.239,0.743c-0.461,2.117-1.178,4.363-1.827,6.421
				c-5.533,18.384-10.835,35.4-15.454,49.847c-89.447-113.618-38.721-249.683-38.721-249.683L842.662,1001.281z"/>
			<path style="fill:#80BDCC;" d="M729.732,883.559c0,0,84.474,196.092,136.984,201.363c25.909,2.602,135.11-5.307,166.32-11.637
				c0,0,5.842-8.145-2.768-32.437c0,0-119.455-10.162-140.805-27.619c-31.774-25.978-21.793-135.673-58.879-158.091
				C793.498,832.721,741.43,832.968,729.732,883.559z"/>
			<path style="fill:#D68D5D;" d="M848.451,791.634c0,0-4.227,10.494-13.977,27.715c-25.102-18.477-29.388-48.147-30.054-60.348
				c-0.196-3.449-0.094-5.507-0.094-5.507s1.17,0.128,3.185,0.359c4.235,0.478,12.209,1.383,20.739,2.356L848.451,791.634z"/>
			<path style="fill:#E49963;" d="M859.936,795.152c0,0-64.139-13.648-55.024-53.46c9.114-39.811,6.974-68.385,48.311-61.354
				c41.336,7.031,45.787,24.037,45.977,38.065C899.389,732.431,876.855,797.676,859.936,795.152z"/>
			<path style="fill:#2B478B;" d="M804.29,744.441c0,0,21.185-50.674,79.03-36.409c28.188,6.951,10.207-35.939,7.864-42.6
				c0,0-11.756-0.976-43.691-6.072C780.465,648.664,800.709,734.392,804.29,744.441z"/>
		</g>
		<path style="fill:#80BDCC;" d="M1788.742,365.92h-41.917v27.8v20.999l-34.498,7.5l-22.499,38.998l14.999,16.499l-20.999,26.999
			l-25.499,14.999c0,0-32.998,50.997-26.999,56.997c6,6,20.999,29.999,25.499,38.998c4.5,9-61.497,58.497-61.497,58.497
			s-43.498,6-43.498,25.499c0,0,23.999-20.999,55.497-11.999l64.51-68.389l-24-45l22.447-45.667l24.887,18.667l-12,36l30-39.333
			l-25.667-24l38.667-43.333l-21.333-25l49.667-27l4.333,38.333l-24.667,41.333l7.667,24.667l23.667,25.333l-17.667-30
			l-2.667-21.333l28.667-38.333l-8.333-50l23.233-6.333V365.92z"/>
		<polygon style="fill:#80BDCC;" points="1670.268,426.209 1621.774,442.061 1626.993,477.33 1585.955,493.992 1595.041,534.208 
			1578.338,564.076 1505.272,556.135 1471.949,520.83 1440.504,555.131 1436.453,592.409 1432.887,625.215 1412.904,639.415 
			1444.421,627.081 1444.817,592.589 1450.579,554.992 1475.022,539.877 1490.28,562.995 1461.011,576.243 1469.461,600.297 
			1469.079,579.132 1508.031,566.265 1581.418,575.917 1610.103,534.106 1599.412,496.732 1634.027,486.746 1635.439,507.688 
			1644.465,480.169 1636.065,446.397 		"/>
		<polygon style="fill:#80BDCC;" points="1710.827,654.707 1736.326,693.705 1670.288,749.202 1721.327,774.701 1713.827,821.199 
			1623.831,900.695 1697.328,818.199 1688.328,777.701 1644.83,744.703 1719.827,692.205 		"/>
		<polygon style="fill:#80BDCC;" points="1534.675,402.65 1528.175,433.15 1567.175,448.15 1577.175,466.65 1564.175,452.65 
			1518.675,438.65 		"/>
		<polygon style="fill:#80BDCC;" points="1710.675,589.15 1739.675,586.65 1775.175,562.15 1788.742,575.65 1788.742,593.65 
			1774.175,574.65 1744.175,600.65 		"/>
		<polygon style="fill:#80BDCC;" points="1136.049,1570.751 1140.69,1536.259 1170.858,1499.13 1228.755,1467.766 1207.282,1414.65 
			1239.949,1376.65 1239.949,1343.983 1249.282,1377.983 1225.282,1411.317 1246.386,1458.214 1247.966,1457.359 1262.522,1397.023 
			1324.533,1335.527 1443.529,1408.626 1324.533,1358.733 1264.121,1461.267 1283.949,1453.139 1293.949,1480.65 1337.282,1462.65 
			1341.282,1432.65 1382.616,1432.65 1350.616,1440.65 1351.282,1471.983 1289.789,1501.983 1276.616,1477.317 1247.966,1488.687 
			1170.858,1535.099 1183.622,1570.751 		"/>
		<path style="fill:#5F9AA8;" d="M796.034,703.357h165.069c1.147,0,1.24-1.687,0.099-1.812l-56.265-6.173
			c0,0,0.899-49.972-52.011-49.972C800.015,645.4,793.116,682.543,796.034,703.357z"/>
		<g>
			<path style="fill:#163560;" d="M1152.745,476.987c0.659-11.214-0.471-22.118-3.132-32.441l20.874-11.922l-27.474-48.104
				l-20.898,11.936c-11.291-11.298-25.168-20.064-40.748-25.307l1.41-23.999l-55.302-3.249l-1.41,23.999
				c-16.087,3.382-30.895,10.463-43.432,20.361l-19.357-14.301l-32.918,44.556l19.334,14.284c-3.851,9.941-6.251,20.637-6.91,31.851
				c-0.659,11.214,0.471,22.117,3.132,32.441l-20.873,11.922l27.474,48.104l20.898-11.936
				c11.292,11.298,25.168,20.064,40.749,25.307l-1.41,23.999l55.302,3.249l1.41-23.999c16.087-3.382,30.895-10.463,43.431-20.361
				l19.356,14.301l32.919-44.556l-19.334-14.284C1149.686,498.897,1152.086,488.201,1152.745,476.987z M1043.702,539.946
				c-38.178-2.243-67.309-35.011-65.066-73.189c2.243-38.178,35.011-67.309,73.189-65.066c38.178,2.243,67.309,35.011,65.065,73.189
				C1114.647,513.058,1081.879,542.189,1043.702,539.946z"/>
			<path style="fill:#163560;" d="M1237.485,243.015c-4.256-7.965-9.609-14.967-15.768-20.928l9.306-16.938l-39.034-21.447
				l-9.317,16.958c-12.485-3.006-25.68-3.19-38.563-0.243L1135,183.37l-39.281,20.99l9.109,17.047
				c-9.61,9.073-16.79,20.145-21.23,32.195l-19.276-1.678l-3.864,44.37l19.253,1.677c1.533,8.432,4.379,16.774,8.635,24.739
				c4.256,7.965,9.609,14.967,15.768,20.928l-9.306,16.938l39.034,21.447l9.317-16.957c12.485,3.006,25.68,3.19,38.564,0.243
				l9.109,17.047l39.281-20.991l-9.109-17.047c9.61-9.073,16.79-20.145,21.23-32.195l19.276,1.678l3.864-44.37l-19.253-1.676
				C1244.587,259.322,1241.741,250.98,1237.485,243.015z M1189.154,331.964c-27.118,14.491-60.849,4.254-75.34-22.863
				c-14.491-27.118-4.255-60.849,22.863-75.34c27.118-14.491,60.849-4.255,75.34,22.864
				C1226.508,283.742,1216.272,317.473,1189.154,331.964z"/>
			<path style="fill:#163560;" d="M912.82,423.378c-3.733-6.985-8.427-13.125-13.827-18.352l8.161-14.853l-34.23-18.808
				l-8.171,14.871c-10.949-2.636-22.52-2.797-33.818-0.213l-7.988-14.949l-34.447,18.407l7.988,14.949
				c-8.427,7.956-14.724,17.666-18.618,28.233l-16.904-1.472l-3.388,38.91l16.884,1.47c1.344,7.395,3.84,14.71,7.572,21.695
				c3.733,6.985,8.427,13.125,13.827,18.352l-8.161,14.853l34.23,18.808l8.171-14.871c10.949,2.636,22.52,2.797,33.818,0.213
				l7.988,14.949l34.447-18.407l-7.988-14.949c8.427-7.956,14.724-17.666,18.617-28.233l16.904,1.472l3.388-38.91l-16.884-1.47
				C919.048,437.677,916.552,430.363,912.82,423.378z M870.436,501.38c-23.781,12.708-53.361,3.731-66.068-20.05
				c-12.708-23.781-3.731-53.361,20.05-66.068c23.781-12.708,53.361-3.731,66.068,20.05
				C903.194,459.093,894.217,488.673,870.436,501.38z"/>
		</g>
		<g>
			<path style="fill:#B74B42;" d="M1803.059,450.005l41.353-2.591c0.895,6.717,2.718,11.835,5.469,15.352
				c4.476,5.694,10.873,8.539,19.189,8.539c6.203,0,10.986-1.454,14.344-4.365c3.358-2.91,5.037-6.285,5.037-10.123
				c0-3.646-1.6-6.908-4.797-9.786c-3.2-2.878-10.619-5.597-22.26-8.155c-19.063-4.285-32.655-9.979-40.778-17.079
				c-8.188-7.1-12.281-16.15-12.281-27.153c0-7.227,2.094-14.056,6.285-20.484c4.188-6.429,10.49-11.48,18.901-15.159
				c8.411-3.678,19.94-5.518,34.589-5.518c17.974,0,31.678,3.344,41.114,10.026c9.434,6.686,15.047,17.318,16.838,31.902
				l-40.969,2.399c-1.088-6.333-3.375-10.939-6.86-13.816c-3.487-2.879-8.299-4.317-14.44-4.317c-5.054,0-8.86,1.071-11.418,3.214
				c-2.559,2.144-3.838,4.749-3.838,7.819c0,2.24,1.056,4.255,3.167,6.045c2.046,1.856,6.908,3.583,14.584,5.182
				c18.998,4.094,32.605,8.236,40.826,12.425c8.218,4.19,14.2,9.388,17.942,15.591c3.742,6.206,5.613,13.145,5.613,20.821
				c0,9.018-2.494,17.335-7.483,24.946c-4.989,7.612-11.962,13.385-20.917,17.318c-8.956,3.934-20.245,5.9-33.869,5.9
				c-23.924,0-40.49-4.605-49.701-13.816C1809.487,475.91,1804.273,464.205,1803.059,450.005z"/>
			<path style="fill:#B74B42;" d="M1947.075,426.306c0-22.963,6.396-40.841,19.189-53.635
				c12.792-12.792,30.607-19.189,53.442-19.189c23.412,0,41.449,6.285,54.115,18.853c12.664,12.569,18.997,30.176,18.997,52.819
				c0,16.44-2.768,29.921-8.3,40.441c-5.533,10.523-13.529,18.71-23.987,24.563c-10.458,5.854-23.492,8.779-39.099,8.779
				c-15.864,0-28.993-2.525-39.386-7.58c-10.396-5.052-18.822-13.049-25.282-23.986
				C1950.305,456.434,1947.075,442.746,1947.075,426.306z M1990.54,426.498c0,14.199,2.639,24.403,7.916,30.606
				c5.277,6.205,12.457,9.308,21.54,9.308c9.339,0,16.566-3.038,21.685-9.115c5.116-6.076,7.676-16.982,7.676-32.719
				c0-13.24-2.672-22.914-8.012-29.023c-5.342-6.107-12.586-9.163-21.732-9.163c-8.764,0-15.8,3.104-21.108,9.307
				C1993.193,401.903,1990.54,412.17,1990.54,426.498z"/>
			<path style="fill:#B74B42;" d="M2108.65,450.005l41.354-2.591c0.895,6.717,2.718,11.835,5.469,15.352
				c4.477,5.694,10.873,8.539,19.189,8.539c6.203,0,10.986-1.454,14.344-4.365c3.358-2.91,5.037-6.285,5.037-10.123
				c0-3.646-1.6-6.908-4.797-9.786c-3.199-2.878-10.619-5.597-22.26-8.155c-19.063-4.285-32.655-9.979-40.778-17.079
				c-8.189-7.1-12.281-16.15-12.281-27.153c0-7.227,2.094-14.056,6.284-20.484c4.188-6.429,10.49-11.48,18.901-15.159
				c8.41-3.678,19.94-5.518,34.589-5.518c17.973,0,31.677,3.344,41.113,10.026c9.434,6.686,15.048,17.318,16.839,31.902
				l-40.969,2.399c-1.089-6.333-3.375-10.939-6.861-13.816c-3.487-2.879-8.3-4.317-14.44-4.317c-5.054,0-8.861,1.071-11.418,3.214
				c-2.559,2.144-3.838,4.749-3.838,7.819c0,2.24,1.056,4.255,3.166,6.045c2.047,1.856,6.908,3.583,14.584,5.182
				c18.998,4.094,32.607,8.236,40.826,12.425c8.219,4.19,14.2,9.388,17.943,15.591c3.741,6.206,5.612,13.145,5.612,20.821
				c0,9.018-2.494,17.335-7.483,24.946c-4.99,7.612-11.962,13.385-20.917,17.318c-8.956,3.934-20.244,5.9-33.869,5.9
				c-23.924,0-40.49-4.605-49.701-13.816C2115.078,475.91,2109.865,464.205,2108.65,450.005z"/>
		</g>
		<path style="fill:#B74B42;" d="M1720.494,1159.825l-235.907-408.604c-9.863-17.083-34.519-17.083-44.382,0l-235.907,408.604
			c-9.863,17.083,2.466,38.435,22.191,38.435h471.815C1718.028,1198.261,1730.357,1176.908,1720.494,1159.825z M1499.515,1136.432
			h-74.056v-65.483h74.056V1136.432z M1502.068,929.951l-15.322,122.393h-49.066l-14.957-122.393v-60.922h79.346V929.951z"/>
		<g>
			<path style="fill:#AB7041;" d="M1877.762,995.312c0,0-22.754-15.16-30.227-31.073c-7.474-15.914-27.748-18.701-35.433-18.072
				c-7.684,0.63-15.322,11.45-7.068,13.836c12.471,3.605,11.754,22.067,30.124,31.627c18.37,9.559,35.46,28.194,35.46,28.194
				L1877.762,995.312z"/>
			<path style="fill:#233862;" d="M1879.087,1739.425l-106.823-3.704c0.486-2.859,3.195-12.351,17.647-13.978
				c17.058-1.921,47.326-10.762,53.611-33.853c6.285-23.09,41.197,9.458,41.197,9.458S1887.168,1734.779,1879.087,1739.425z"/>
			<path style="fill:#2B478B;" d="M2080.336,1290.139c-19.068,35.725-63.054,84.879-79.986,123.557
				c-4.008,9.148-6.5,17.699-6.8,25.36c-3.418,88.005-104.982,258.256-104.982,258.256c-9.317,5.58-47.793-7.569-47.793-7.569
				s5.843-38.414,32.786-170.909c14.854-73.086,39.41-181.82,58.437-264.646c4.901-21.334,9.443-40.946,13.341-57.786
				c8.436-36.324,13.955-59.755,13.955-59.755l37.03,1.899l100.01,5.125C2096.333,1143.67,2136.483,1184.934,2080.336,1290.139z"/>
			<path style="fill:#233862;" d="M2080.336,1290.139c-19.068,35.725-63.054,84.879-79.986,123.557
				c-20.456-47.476-51.486-119.641-68.353-159.507c4.901-21.334,9.443-40.946,13.341-57.786
				c6.138-25.101,8.101-36.361,13.955-59.755l137.04,7.024C2096.333,1143.67,2136.483,1184.934,2080.336,1290.139z"/>
			<path style="fill:#233862;" d="M2259.905,1686.595c-4.591,12.046-22.096,18.973-25.52,33.853
				c-2.398,10.385-7.864,17.191-13.743,20.13l-46.935-1.627c-0.713-1.771-3.659-10.964,9.734-12.84
				c14.846-2.081,21.694-19.354,22.03-35.853c0.004-0.396,0.018-0.801,0.032-1.207c0.491-16.333,4.257-37.018,4.257-37.018
				l31.577-4.946l4.988,7.517l0.78,1.188C2247.106,1655.793,2264.495,1674.548,2259.905,1686.595z"/>
			<path style="fill:#2B478B;" d="M2055.283,1506.488c17.618,34.797,146.717,187.345,146.717,187.345s44.234-13.248,52.937-39.532
				c0,0-73.262-126.854-108.574-185.598c-10.097-16.796-7.321-268.1-43.754-315.181c-45.673-59.016-135.734,46.826-135.734,46.826
				s23.956,88.749,31.39,116.7C2014.743,1379.038,2043.14,1482.508,2055.283,1506.488z"/>
			<path style="fill:#9C5F33;" d="M2015.637,826.859c-5.74-26.06-6.642-41.628-6.642-41.628l48.778-43.423
				c0.875,56.374,38.268,81.666,38.268,81.666s-66.045,36.635-105.77,26.217C1990.273,849.69,1999.3,836.908,2015.637,826.859z"/>
			<path style="fill:#AB7041;" d="M1996.987,784.888c0,0,65.137,7.563,69.223-33.074s15.244-67.029-26.172-73.575
				c-41.415-6.547-51.067,8.146-55.73,21.378C1979.645,712.849,1980.149,781.874,1996.987,784.888z"/>
			<path style="fill:#233862;" d="M2065.92,754.619c0,0-3.955-53.971-63.252-59.755c-40.615-3.961-2.09-37.651,2.257-43.214
				c0,0,15.355,3.167,47.245,8.543C2119.101,671.476,2072.525,746.24,2065.92,754.619z"/>
			<path style="fill:#E2923D;" d="M1959.569,901.645c-5.166,19.271-9.117,49.773-12.083,84.085
				c-1.141,13.294-2.139,27.158-3.006,41.165c-1.403,22.729-2.611,45.659-3.22,67.422l-0.011,0.78
				c-0.239,2.154-0.278,4.511-0.321,6.668c-0.631,19.188-1.045,37.006-1.284,52.172c-0.448,29.007-5.309,43.61,0.385,48.823
				c11.44,10.475,66.52,21.947,102.87,18.896c30.643-2.372,83.075-23.007,88.707-40.396c6.528-20.155-0.029-89.675,5.912-166.262
				c7.038-93.626-18.615-178.94-54.582-206.874c-2.709-2.013-8.117,3.282-23.754,10.641c-14.445,6.789-30.582,8.616-44.061,5.62
				l-11.938,10.402C1986.425,849.772,1967.995,870.219,1959.569,901.645z"/>
			<path style="fill:#D88029;" d="M1944.48,1026.896C1943.339,1040.189,1945.347,1012.888,1944.48,1026.896
				c-1.403,22.729-2.611,45.659-3.22,67.422l-0.011,0.78c-0.239,2.154-0.278,4.511-0.321,6.668
				c-0.631,19.188-1.045,37.006-1.284,52.172c121.063-79.078,116.478-224.219,116.478-224.219L1944.48,1026.896z"/>
			<path style="fill:#233862;" d="M2040.288,719.783c0,0-3.021-13.614-20.628-21.589c0,0,53.193,19.193,49.872,36.407
				c-3.322,17.214-3.612,20.018-3.612,20.018S2037.225,746.232,2040.288,719.783z"/>
			<path style="fill:#163560;" d="M2285.65,1294.036L1786.514,794.9c-22.314-22.314-32.704-53.779-28.512-85.056
				c6.198-46.247-8.471-94.754-44.013-130.296c-25.086-25.086-56.633-39.767-89.285-44.059l-5.81,5.81l82.869,82.869l-34.31,128.047
				l-128.047,34.31l-82.869-82.868l-5.81,5.81c4.293,32.652,18.973,64.199,44.059,89.285
				c35.542,35.542,84.049,50.211,130.296,44.013c31.277-4.192,62.742,6.197,85.056,28.512l499.136,499.136
				c22.314,22.314,32.704,53.779,28.512,85.056c-6.198,46.247,8.47,94.754,44.013,130.296
				c25.086,25.086,56.634,39.767,89.285,44.059l5.811-5.81l-82.869-82.869l34.31-128.047l128.046-34.31l82.869,82.869l5.81-5.81
				c-4.292-32.651-18.972-64.199-44.059-89.285c-35.542-35.542-84.049-50.211-130.296-44.013
				C2339.429,1326.74,2307.964,1316.35,2285.65,1294.036z"/>
			<path style="fill:#9E6138;" d="M1871.002,994.692c0,0-22.754-15.16-30.227-31.073c-7.474-15.914-27.748-18.701-35.433-18.072
				c-7.684,0.629-12.034,9.529-7.984,17.107c5.167,9.667,12.669,18.796,31.04,28.355c18.37,9.559,35.459,28.195,35.459,28.195
				L1871.002,994.692z"/>
			<path style="fill:#E2923D;" d="M2116.242,909.62c0,0-118.871,177.363-171.46,172.954c-25.949-2.176-81.425-54.824-105.633-79.961
				c0,0-5.356-8.486,18.103-24.228c0,0,81.378,45.615,89.807,43.637c14.678-3.445,34.661-143.5,75.218-158.766
				C2062.835,847.99,2113.982,857.743,2116.242,909.62z"/>
		</g>
		<path style="fill:#5F9AA8;" d="M2088.148,708.335l-158.196-47.133c-1.1-0.328-0.706-1.971,0.422-1.765l55.685,10.15
			c0,0,13.407-48.148,64.115-33.04C2100.882,651.654,2096.888,689.221,2088.148,708.335z"/>
	</g>
	<path style="fill:#202F4E;" d="M2850.35,1740.578H149.649c-2.321,0-4.22-1.738-4.22-3.861l0,0c0-2.123,1.899-3.861,4.22-3.861
		H2850.35c2.321,0,4.22,1.737,4.22,3.861l0,0C2854.571,1738.841,2852.671,1740.578,2850.35,1740.578z"/>
</g>
</svg>
